<svg xmlns="http://www.w3.org/2000/svg" width="16" height="18" fill="none"><path fill="#000" d="M0 16.313C0 17.244.768 18 1.714 18h12.572c.946 0 1.714-.756 1.714-1.688V6.75H0v9.563Zm2.286-6.75c0-.31.257-.563.571-.563h3.429c.314 0 .571.253.571.563v3.374c0 .31-.257.563-.571.563H2.857a.569.569 0 0 1-.571-.563V9.563Zm12-7.313H12.57V.562A.569.569 0 0 0 12 0h-1.143a.569.569 0 0 0-.571.563V2.25H5.714V.562A.569.569 0 0 0 5.143 0H4a.569.569 0 0 0-.571.563V2.25H1.714C.768 2.25 0 3.006 0 3.938v1.687h16V3.937c0-.931-.768-1.687-1.714-1.687Z"/></svg>