<svg xmlns="http://www.w3.org/2000/svg" width="17" height="17" fill="none"><path fill="#000" d="M3.961 2.941a1.02 1.02 0 1 1 0 2.04 1.02 1.02 0 0 1 0-2.04ZM.051 4.998a6.452 6.452 0 0 1 .391-2.066c.216-.566.553-1.08.986-1.504.42-.436.935-.77 1.505-.977.66-.25 1.359-.385 2.065-.4C5.899 0 6.188 0 8.5 0s2.601 0 3.502.051c.706.015 1.405.15 2.066.4.568.21 1.082.543 1.504.977.436.42.77.935.977 1.505.25.66.385 1.359.4 2.065C17 5.899 17 6.188 17 8.5s0 2.601-.051 3.502a6.203 6.203 0 0 1-.4 2.066 3.996 3.996 0 0 1-.977 1.504 4.063 4.063 0 0 1-1.504.977c-.661.25-1.36.385-2.066.4C11.101 17 10.812 17 8.5 17s-2.601 0-3.502-.051a6.203 6.203 0 0 1-2.066-.4 3.995 3.995 0 0 1-1.504-.977 4.122 4.122 0 0 1-.986-1.504 6.452 6.452 0 0 1-.391-2.066C.051 11.101 0 10.812 0 8.5s0-2.601.051-3.502Zm1.53 6.902c.006.54.104 1.074.289 1.581a2.6 2.6 0 0 0 .637.978c.276.28.61.498.978.637a4.769 4.769 0 0 0 1.581.289c.85.043 1.165.051 3.4.051 2.236 0 2.55 0 3.4-.051.56.01 1.118-.076 1.649-.255.352-.146.67-.363.935-.638a2.55 2.55 0 0 0 .629-.977 4.71 4.71 0 0 0 .34-1.615c0-.85.051-1.165.051-3.4 0-2.236 0-2.55-.051-3.4a4.709 4.709 0 0 0-.298-1.615 2.55 2.55 0 0 0-.671-.935 2.669 2.669 0 0 0-.935-.68 4.87 4.87 0 0 0-1.615-.289c-.85 0-1.165-.051-3.4-.051-2.236 0-2.55 0-3.4.051a4.769 4.769 0 0 0-1.581.289 2.6 2.6 0 0 0-1.012.68 2.6 2.6 0 0 0-.637.935A4.768 4.768 0 0 0 1.581 5.1c-.042.85-.051 1.165-.051 3.4 0 2.236.008 2.55.051 3.4ZM8.5 4.14A4.36 4.36 0 1 1 4.131 8.5 4.352 4.352 0 0 1 8.5 4.14Zm0 7.19a2.83 2.83 0 1 0 0-5.66 2.83 2.83 0 0 0 0 5.66Z"/></svg>