<svg width="44" height="44" viewBox="0 0 44 44" fill="none" xmlns="http://www.w3.org/2000/svg">
<path d="M22 3.66669C18.374 3.66669 14.8294 4.74192 11.8145 6.75641C8.79961 8.7709 6.44978 11.6342 5.06218 14.9842C3.67457 18.3341 3.31151 22.0204 4.0189 25.5767C4.7263 29.133 6.47238 32.3997 9.03634 34.9636C11.6003 37.5276 14.867 39.2737 18.4233 39.9811C21.9796 40.6885 25.6659 40.3254 29.0158 38.9378C32.3658 37.5502 35.2291 35.2004 37.2436 32.1855C39.2581 29.1706 40.3333 25.626 40.3333 22C40.3279 17.1394 38.3946 12.4794 34.9576 9.04237C31.5206 5.60537 26.8606 3.67209 22 3.66669ZM22 36.6667C19.0992 36.6667 16.2635 35.8065 13.8516 34.1949C11.4397 32.5833 9.55982 30.2927 8.44973 27.6127C7.33965 24.9327 7.0492 21.9837 7.61512 19.1387C8.18103 16.2936 9.5779 13.6803 11.6291 11.6291C13.6802 9.57795 16.2936 8.18109 19.1386 7.61517C21.9837 7.04925 24.9327 7.3397 27.6127 8.44979C30.2926 9.55987 32.5833 11.4397 34.1949 13.8517C35.8064 16.2636 36.6666 19.0992 36.6666 22C36.6622 25.8885 35.1155 29.6164 32.3659 32.366C29.6164 35.1156 25.8884 36.6622 22 36.6667ZM25.8466 17.662L23.8333 18.8248V12.8334C23.8333 12.3471 23.6401 11.8808 23.2963 11.537C22.9525 11.1932 22.4862 11 22 11C21.5137 11 21.0474 11.1932 20.7036 11.537C20.3598 11.8808 20.1666 12.3471 20.1666 12.8334V22C20.1667 22.3218 20.2515 22.6379 20.4124 22.9166C20.5733 23.1953 20.8047 23.4267 21.0834 23.5876C21.362 23.7485 21.6782 23.8333 21.9999 23.8334C22.3217 23.8334 22.6379 23.7488 22.9166 23.5881L27.6799 20.8381C27.8886 20.7178 28.0715 20.5575 28.2182 20.3665C28.3649 20.1755 28.4726 19.9574 28.535 19.7247C28.5974 19.4921 28.6134 19.2494 28.582 19.0106C28.5506 18.7718 28.4725 18.5415 28.3521 18.3329C28.2317 18.1243 28.0713 17.9414 27.8802 17.7948C27.6891 17.6482 27.471 17.5406 27.2383 17.4783C27.0056 17.416 26.763 17.4002 26.5242 17.4317C26.2854 17.4632 26.0551 17.5414 25.8466 17.662Z" fill="black"/>
</svg>
