<svg width="44" height="44" viewBox="0 0 44 44" fill="none" xmlns="http://www.w3.org/2000/svg">
<path d="M22 3.66669C18.1102 3.66669 14.3797 5.21192 11.6291 7.96245C8.87861 10.713 7.33337 14.4435 7.33337 18.3334C7.33337 28.2334 20.2584 39.4167 20.8084 39.8934C21.1405 40.1774 21.5631 40.3335 22 40.3335C22.437 40.3335 22.8596 40.1774 23.1917 39.8934C23.8334 39.4167 36.6667 28.2334 36.6667 18.3334C36.6667 14.4435 35.1215 10.713 32.3709 7.96245C29.6204 5.21192 25.8899 3.66669 22 3.66669ZM22 36.025C18.095 32.3584 11 24.4567 11 18.3334C11 15.416 12.159 12.6181 14.2219 10.5552C16.2848 8.49228 19.0827 7.33335 22 7.33335C24.9174 7.33335 27.7153 8.49228 29.7782 10.5552C31.8411 12.6181 33 15.416 33 18.3334C33 24.4567 25.905 32.3767 22 36.025ZM22 11C20.5496 11 19.1318 11.4301 17.9259 12.2359C16.7199 13.0417 15.78 14.187 15.2249 15.527C14.6699 16.867 14.5247 18.3415 14.8076 19.764C15.0906 21.1865 15.789 22.4932 16.8146 23.5188C17.8402 24.5444 19.1469 25.2428 20.5694 25.5258C21.9919 25.8087 23.4664 25.6635 24.8064 25.1085C26.1464 24.5534 27.2917 23.6135 28.0975 22.4075C28.9033 21.2016 29.3334 19.7838 29.3334 18.3334C29.3334 16.3884 28.5608 14.5232 27.1855 13.1479C25.8102 11.7726 23.945 11 22 11ZM22 22C21.2748 22 20.5659 21.785 19.963 21.3821C19.36 20.9792 18.89 20.4065 18.6125 19.7365C18.335 19.0665 18.2623 18.3293 18.4038 17.618C18.5453 16.9068 18.8945 16.2534 19.4073 15.7406C19.9201 15.2278 20.5734 14.8786 21.2847 14.7371C21.996 14.5957 22.7332 14.6683 23.4032 14.9458C24.0732 15.2233 24.6459 15.6933 25.0488 16.2963C25.4517 16.8992 25.6667 17.6082 25.6667 18.3334C25.6667 19.3058 25.2804 20.2384 24.5928 20.9261C23.9051 21.6137 22.9725 22 22 22Z" fill="black"/>
</svg>
