<svg xmlns="http://www.w3.org/2000/svg" width="32" height="26" fill="none"><path fill="#000" d="M31.93 5.862 28.21 17.98c-.279.863-1.009 1.438-1.879 1.438H11.965c-.835 0-1.635-.54-1.913-1.33L4.557 2.877H1.39C.626 2.877 0 2.23 0 1.438 0 .648.626 0 1.391 0h4.14c.59 0 1.112.396 1.321.971l5.67 15.571h13.217l2.957-9.71H12.313c-.765 0-1.391-.647-1.391-1.438 0-.791.626-1.438 1.391-1.438h18.296c.452 0 .87.251 1.113.611.278.36.348.863.208 1.295ZM12.66 21.325c-.59 0-1.182.252-1.6.683a2.413 2.413 0 0 0-.66 1.655c0 .61.243 1.222.66 1.654a2.256 2.256 0 0 0 1.6.683c.592 0 1.184-.252 1.6-.683.418-.432.662-1.043.662-1.654 0-.612-.244-1.223-.661-1.655a2.256 2.256 0 0 0-1.6-.683Zm12.488 0c-.591 0-1.183.252-1.6.683a2.413 2.413 0 0 0-.661 1.655c0 .61.243 1.222.66 1.654a2.256 2.256 0 0 0 1.6.683c.592 0 1.183-.252 1.6-.683.418-.432.662-1.043.662-1.654 0-.612-.244-1.223-.661-1.655a2.256 2.256 0 0 0-1.6-.683Z"/></svg>