<svg width="32" height="26" viewBox="0 0 32 26" fill="none" xmlns="http://www.w3.org/2000/svg">
<path d="M31.9304 5.86169L28.2087 17.9806C27.9304 18.8437 27.2 19.4191 26.3304 19.4191H11.9652C11.1304 19.4191 10.3304 18.8797 10.0522 18.0885L4.55652 2.8769H1.3913C0.626087 2.8769 0 2.2296 0 1.43845C0 0.647303 0.626087 0 1.3913 0H5.53043C6.12174 0 6.64348 0.395574 6.85217 0.970954L12.5217 16.5422H25.7391L28.6957 6.83264H12.313C11.5478 6.83264 10.9217 6.18534 10.9217 5.39419C10.9217 4.60304 11.5478 3.95574 12.313 3.95574H30.6087C31.0609 3.95574 31.4783 4.20747 31.7217 4.56708C32 4.92669 32.0696 5.43015 31.9304 5.86169ZM12.6609 21.325C12.0696 21.325 11.4783 21.5768 11.0609 22.0083C10.6435 22.4398 10.4 23.0512 10.4 23.6625C10.4 24.2739 10.6435 24.8852 11.0609 25.3167C11.4783 25.7483 12.0696 26 12.6609 26C13.2522 26 13.8435 25.7483 14.2609 25.3167C14.6783 24.8852 14.9217 24.2739 14.9217 23.6625C14.9217 23.0512 14.6783 22.4398 14.2609 22.0083C13.8435 21.5768 13.2522 21.325 12.6609 21.325ZM25.1478 21.325C24.5565 21.325 23.9652 21.5768 23.5478 22.0083C23.1304 22.4398 22.887 23.0512 22.887 23.6625C22.887 24.2739 23.1304 24.8852 23.5478 25.3167C23.9652 25.7483 24.5565 26 25.1478 26C25.7391 26 26.3304 25.7483 26.7478 25.3167C27.1652 24.8852 27.4087 24.2739 27.4087 23.6625C27.4087 23.0512 27.1652 22.4398 26.7478 22.0083C26.3304 21.5768 25.7391 21.325 25.1478 21.325Z" fill="black"/>
</svg>
