<svg xmlns="http://www.w3.org/2000/svg" width="17" height="17" viewBox="0 0 17 17" fill="none">
  <path d="M3.961 2.941C4.16274 2.941 4.35994 3.00082 4.52768 3.1129C4.69542 3.22498 4.82616 3.38428 4.90336 3.57066C4.98056 3.75704 5.00076 3.96213 4.9614 4.15999C4.92204 4.35785 4.8249 4.5396 4.68225 4.68225C4.5396 4.8249 4.35785 4.92204 4.15999 4.9614C3.96213 5.00076 3.75704 4.98056 3.57066 4.90336C3.38428 4.82616 3.22498 4.69542 3.1129 4.52768C3.00082 4.35994 2.941 4.16274 2.941 3.961C2.941 3.69048 3.04846 3.43104 3.23975 3.23975C3.43104 3.04846 3.69048 2.941 3.961 2.941ZM0.0509987 4.998C0.0675297 4.29275 0.199617 3.59499 0.441999 2.9325C0.658129 2.36566 0.994513 1.85239 1.428 1.428C1.8489 0.992312 2.36337 0.65805 2.9325 0.4505C3.59324 0.200737 4.29178 0.0656285 4.998 0.051C5.899 -4.74975e-08 6.188 0 8.5 0C10.812 0 11.101 -4.74975e-08 12.002 0.051C12.7082 0.0656285 13.4068 0.200737 14.0675 0.4505C14.6356 0.660151 15.1496 0.994126 15.572 1.428C16.0077 1.8489 16.3419 2.36337 16.5495 2.9325C16.7993 3.59324 16.9344 4.29178 16.949 4.998C17 5.899 17 6.188 17 8.5C17 10.812 17 11.101 16.949 12.002C16.9344 12.7082 16.7993 13.4068 16.5495 14.0675C16.3419 14.6366 16.0077 15.1511 15.572 15.572C15.1496 16.0059 14.6356 16.3398 14.0675 16.5495C13.4068 16.7993 12.7082 16.9344 12.002 16.949C11.101 17 10.812 17 8.5 17C6.188 17 5.899 17 4.998 16.949C4.29178 16.9344 3.59324 16.7993 2.9325 16.5495C2.36337 16.3419 1.8489 16.0077 1.428 15.572C0.992594 15.1492 0.655914 14.6355 0.441999 14.0675C0.199617 13.405 0.0675297 12.7072 0.0509987 12.002C0.0509987 11.101 0 10.812 0 8.5C0 6.188 0 5.899 0.0509987 4.998ZM1.581 11.9C1.58719 12.4396 1.68491 12.9741 1.87 13.481C2.00572 13.8509 2.2237 14.1852 2.5075 14.4585C2.7832 14.7394 3.11676 14.957 3.485 15.096C3.99185 15.2811 4.52644 15.3788 5.066 15.385C5.916 15.4275 6.2305 15.436 8.466 15.436C10.7015 15.436 11.016 15.436 11.866 15.385C12.4262 15.3955 12.9841 15.3092 13.515 15.13C13.8671 14.9839 14.1853 14.7669 14.45 14.4925C14.7321 14.2194 14.9474 13.8849 15.079 13.515C15.2865 13.0009 15.4016 12.4542 15.419 11.9C15.419 11.05 15.47 10.7355 15.47 8.5C15.47 6.2645 15.47 5.95 15.419 5.1C15.4152 4.5484 15.3145 4.00175 15.1215 3.485C14.9719 3.12622 14.7422 2.80641 14.45 2.55C14.1918 2.25774 13.8726 2.02563 13.515 1.87C12.9969 1.68304 12.4508 1.58532 11.9 1.581C11.05 1.581 10.7355 1.53 8.5 1.53C6.2645 1.53 5.95 1.53 5.1 1.581C4.56044 1.58719 4.02585 1.68491 3.519 1.87C3.13273 2.01335 2.78605 2.24642 2.5075 2.55C2.22895 2.8111 2.0113 3.13032 1.87 3.485C1.68109 4.00259 1.5833 4.54901 1.581 5.1C1.5385 5.95 1.53 6.2645 1.53 8.5C1.53 10.7355 1.5385 11.05 1.581 11.9ZM8.5 4.1395C9.36206 4.14118 10.2043 4.39835 10.9202 4.87851C11.6362 5.35866 12.1938 6.04027 12.5225 6.83719C12.8512 7.63411 12.9364 8.5106 12.7672 9.35589C12.598 10.2012 12.182 10.9774 11.5718 11.5863C10.9617 12.1953 10.1847 12.6098 9.33907 12.7773C8.49345 12.9449 7.61713 12.858 6.82085 12.5278C6.02457 12.1975 5.34405 11.6386 4.86529 10.9217C4.38653 10.2048 4.131 9.36206 4.131 8.5C4.12988 7.92634 4.24218 7.35812 4.46145 6.82801C4.68072 6.29791 5.00263 5.81639 5.40866 5.41114C5.8147 5.0059 6.29684 4.68493 6.82737 4.46669C7.3579 4.24845 7.92634 4.13726 8.5 4.1395ZM8.5 11.3305C9.05982 11.3305 9.60707 11.1645 10.0725 10.8535C10.538 10.5425 10.9008 10.1004 11.115 9.58319C11.3293 9.06598 11.3853 8.49686 11.2761 7.9478C11.1669 7.39873 10.8973 6.89439 10.5015 6.49853C10.1056 6.10268 9.60127 5.8331 9.0522 5.72389C8.50314 5.61467 7.93402 5.67073 7.41681 5.88496C6.89961 6.09919 6.45754 6.46199 6.14652 6.92746C5.83551 7.39293 5.6695 7.94018 5.6695 8.5C5.6695 8.87171 5.74271 9.23977 5.88496 9.58319C6.0272 9.9266 6.2357 10.2386 6.49853 10.5015C6.76137 10.7643 7.0734 10.9728 7.41681 11.115C7.76023 11.2573 8.12829 11.3305 8.5 11.3305Z" fill="black"/>
</svg>